<svg width="51" height="51" viewBox="0 0 51 51" fill="none" xmlns="http://www.w3.org/2000/svg">
<path d="M19.2637 33.3079C19.2637 32.445 19.9632 31.7454 20.8262 31.7454H30.2012C31.0641 31.7454 31.7637 32.445 31.7637 33.3079C31.7637 34.1709 31.0641 34.8704 30.2012 34.8704H20.8262C19.9632 34.8704 19.2637 34.1709 19.2637 33.3079Z" fill="black"/>
<path d="M13.0137 23.9329C13.0137 23.07 13.7132 22.3704 14.5762 22.3704H36.4512C37.3141 22.3704 38.0137 23.07 38.0137 23.9329C38.0137 24.7959 37.3141 25.4954 36.4512 25.4954H14.5762C13.7132 25.4954 13.0137 24.7959 13.0137 23.9329Z" fill="black"/>
<path d="M6.76367 14.5579C6.76367 13.695 7.46323 12.9954 8.32617 12.9954H42.7012C43.5641 12.9954 44.2637 13.695 44.2637 14.5579C44.2637 15.4209 43.5641 16.1204 42.7012 16.1204H8.32617C7.46323 16.1204 6.76367 15.4209 6.76367 14.5579Z" fill="black"/>
</svg>
