<svg width="26" height="26" viewBox="0 0 26 26" fill="none" xmlns="http://www.w3.org/2000/svg">
<path d="M4.76367 15.7526C3.46925 15.7526 2.41992 14.7033 2.41992 13.4088C2.41992 12.1144 3.46925 11.0651 4.76367 11.0651C6.05809 11.0651 7.10742 12.1144 7.10742 13.4088C7.10742 14.7033 6.05809 15.7526 4.76367 15.7526ZM12.5762 15.7526C11.2818 15.7526 10.2324 14.7033 10.2324 13.4088C10.2324 12.1144 11.2818 11.0651 12.5762 11.0651C13.8706 11.0651 14.9199 12.1144 14.9199 13.4088C14.9199 14.7033 13.8706 15.7526 12.5762 15.7526ZM20.3887 15.7526C19.0943 15.7526 18.0449 14.7033 18.0449 13.4088C18.0449 12.1144 19.0943 11.0651 20.3887 11.0651C21.6831 11.0651 22.7324 12.1144 22.7324 13.4088C22.7324 14.7033 21.6831 15.7526 20.3887 15.7526Z" fill="#FFF9F9"/>
</svg>
