<svg width="51" height="51" viewBox="0 0 51 51" fill="none" xmlns="http://www.w3.org/2000/svg">
<path d="M10.0762 30.262C7.48734 30.262 5.38867 28.1633 5.38867 25.5745C5.38867 22.9857 7.48734 20.887 10.0762 20.887C12.665 20.887 14.7637 22.9857 14.7637 25.5745C14.7637 28.1633 12.665 30.262 10.0762 30.262ZM25.7012 30.262C23.1123 30.262 21.0137 28.1633 21.0137 25.5745C21.0137 22.9857 23.1123 20.887 25.7012 20.887C28.29 20.887 30.3887 22.9857 30.3887 25.5745C30.3887 28.1633 28.29 30.262 25.7012 30.262ZM41.3262 30.262C38.7373 30.262 36.6387 28.1633 36.6387 25.5745C36.6387 22.9857 38.7373 20.887 41.3262 20.887C43.915 20.887 46.0137 22.9857 46.0137 25.5745C46.0137 28.1633 43.915 30.262 41.3262 30.262Z" fill="black"/>
</svg>
