<svg width="50" height="51" viewBox="0 0 50 51" fill="none" xmlns="http://www.w3.org/2000/svg">
<path d="M39.0625 50.5745C45.1031 50.5745 50 45.6776 50 39.637C50 33.5964 45.1031 28.6995 39.0625 28.6995C33.0219 28.6995 28.125 33.5964 28.125 39.637C28.125 45.6776 33.0219 50.5745 39.0625 50.5745ZM40.625 34.9495V38.0745H43.75C44.6129 38.0745 45.3125 38.774 45.3125 39.637C45.3125 40.4999 44.6129 41.1995 43.75 41.1995H40.625V44.3245C40.625 45.1874 39.9254 45.887 39.0625 45.887C38.1996 45.887 37.5 45.1874 37.5 44.3245V41.1995H34.375C33.5121 41.1995 32.8125 40.4999 32.8125 39.637C32.8125 38.774 33.5121 38.0745 34.375 38.0745H37.5V34.9495C37.5 34.0865 38.1996 33.387 39.0625 33.387C39.9254 33.387 40.625 34.0865 40.625 34.9495Z" fill="black"/>
<path d="M34.375 16.1995C34.375 21.3772 30.1777 25.5745 25 25.5745C19.8223 25.5745 15.625 21.3772 15.625 16.1995C15.625 11.0218 19.8223 6.82449 25 6.82449C30.1777 6.82449 34.375 11.0218 34.375 16.1995Z" fill="black"/>
<path d="M6.25 41.1995C6.25 44.3245 9.375 44.3245 9.375 44.3245H25.8002C25.282 42.8583 25 41.2806 25 39.637C25 35.4068 26.8678 31.6129 29.8237 29.0349C28.3659 28.8188 26.7625 28.6995 25 28.6995C9.375 28.6995 6.25 38.0745 6.25 41.1995Z" fill="black"/>
</svg>
