<svg width="50" height="51" viewBox="0 0 50 51" fill="none" xmlns="http://www.w3.org/2000/svg">
<path d="M17.1875 17.3295C18.0504 17.3295 18.75 18.029 18.75 18.892V37.642C18.75 38.5049 18.0504 39.2045 17.1875 39.2045C16.3246 39.2045 15.625 38.5049 15.625 37.642V18.892C15.625 18.029 16.3246 17.3295 17.1875 17.3295Z" fill="black"/>
<path d="M25 17.3295C25.8629 17.3295 26.5625 18.029 26.5625 18.892V37.642C26.5625 38.5049 25.8629 39.2045 25 39.2045C24.1371 39.2045 23.4375 38.5049 23.4375 37.642V18.892C23.4375 18.029 24.1371 17.3295 25 17.3295Z" fill="black"/>
<path d="M34.375 18.892C34.375 18.029 33.6754 17.3295 32.8125 17.3295C31.9496 17.3295 31.25 18.029 31.25 18.892V37.642C31.25 38.5049 31.9496 39.2045 32.8125 39.2045C33.6754 39.2045 34.375 38.5049 34.375 37.642V18.892Z" fill="black"/>
<path fill-rule="evenodd" clip-rule="evenodd" d="M45.3125 9.51697C45.3125 11.2429 43.9134 12.642 42.1875 12.642H40.625V40.767C40.625 44.2187 37.8268 47.017 34.375 47.017H15.625C12.1732 47.017 9.375 44.2187 9.375 40.767V12.642H7.8125C6.08661 12.642 4.6875 11.2429 4.6875 9.51697V6.39197C4.6875 4.66608 6.08661 3.26697 7.8125 3.26697H18.75C18.75 1.54108 20.1491 0.141968 21.875 0.141968H28.125C29.8509 0.141968 31.25 1.54108 31.25 3.26697H42.1875C43.9134 3.26697 45.3125 4.66608 45.3125 6.39197V9.51697ZM12.8689 12.642L12.5 12.8264V40.767C12.5 42.4929 13.8991 43.892 15.625 43.892H34.375C36.1009 43.892 37.5 42.4929 37.5 40.767V12.8264L37.1311 12.642H12.8689ZM7.8125 9.51697V6.39197H42.1875V9.51697H7.8125Z" fill="black"/>
</svg>
