<svg width="8" height="11" viewBox="0 0 8 11" fill="none" xmlns="http://www.w3.org/2000/svg">
<path d="M4.87451 0.900208C5.03989 0.900208 5.17396 1.04012 5.17396 1.21271C5.17396 1.3853 5.30803 1.52521 5.47341 1.52521C5.63879 1.52521 5.77285 1.66512 5.77285 1.83771V2.15021C5.77285 2.3228 5.63879 2.46271 5.47341 2.46271H2.47894C2.31356 2.46271 2.17949 2.3228 2.17949 2.15021V1.83771C2.17949 1.66512 2.31356 1.52521 2.47894 1.52521C2.64432 1.52521 2.77839 1.3853 2.77839 1.21271C2.77839 1.04012 2.91245 0.900208 3.07783 0.900208H4.87451Z" fill="black"/>
<path d="M0.981706 2.46271C0.981706 2.29012 1.11577 2.15021 1.28115 2.15021H1.5806C1.74598 2.15021 1.88005 2.0103 1.88005 1.83771C1.88005 1.66512 1.74598 1.52521 1.5806 1.52521H1.28115C0.785013 1.52521 0.382812 1.94494 0.382812 2.46271V9.96271C0.382812 10.4805 0.785013 10.9002 1.28115 10.9002H6.67119C7.16733 10.9002 7.56953 10.4805 7.56953 9.96271V2.46271C7.56953 1.94494 7.16733 1.52521 6.67119 1.52521H6.37175C6.20637 1.52521 6.0723 1.66512 6.0723 1.83771C6.0723 2.0103 6.20637 2.15021 6.37175 2.15021H6.67119C6.83657 2.15021 6.97064 2.29012 6.97064 2.46271V9.96271C6.97064 10.1353 6.83657 10.2752 6.67119 10.2752H1.28115C1.11577 10.2752 0.981706 10.1353 0.981706 9.96271V2.46271Z" fill="black"/>
<path d="M5.68515 5.80868C5.80209 5.68664 5.80209 5.48878 5.68515 5.36674C5.56821 5.2447 5.37861 5.2447 5.26167 5.36674L3.67673 7.02077L2.99013 6.30424C2.87319 6.1822 2.68359 6.1822 2.56665 6.30424C2.4497 6.42628 2.4497 6.62414 2.56665 6.74618L3.46499 7.68368C3.52114 7.74228 3.59731 7.77521 3.67673 7.77521C3.75614 7.77521 3.83231 7.74228 3.88847 7.68368L5.68515 5.80868Z" fill="black"/>
</svg>
