<svg width="15" height="15" viewBox="0 0 15 15" fill="none" xmlns="http://www.w3.org/2000/svg">
<path d="M14.3646 1.57389C14.5517 1.76915 14.5517 2.08574 14.3646 2.281L13.3653 3.32388L11.4488 1.32388L12.4481 0.280999C12.6353 0.0857364 12.9386 0.0857366 13.1257 0.280999L14.3646 1.57389Z" fill="black"/>
<path d="M12.6877 4.03099L10.7713 2.03099L4.24284 8.84398C4.19025 8.89887 4.15062 8.96578 4.1271 9.03942L3.35615 11.4531C3.29372 11.6485 3.47189 11.8345 3.65916 11.7693L5.97203 10.9648C6.04259 10.9402 6.10671 10.8989 6.1593 10.844L12.6877 4.03099Z" fill="black"/>
<path fill-rule="evenodd" clip-rule="evenodd" d="M0.46875 13.1346C0.46875 13.963 1.11227 14.6346 1.90609 14.6346H12.4466C13.2404 14.6346 13.884 13.963 13.884 13.1346V7.13455C13.884 6.85841 13.6695 6.63455 13.4048 6.63455C13.1402 6.63455 12.9257 6.85841 12.9257 7.13455V13.1346C12.9257 13.4107 12.7112 13.6346 12.4466 13.6346H1.90609C1.64149 13.6346 1.42698 13.4107 1.42698 13.1346V2.13455C1.42698 1.85841 1.64149 1.63455 1.90609 1.63455H8.13459C8.39919 1.63455 8.6137 1.41069 8.6137 1.13455C8.6137 0.85841 8.39919 0.634552 8.13459 0.634552H1.90609C1.11227 0.634552 0.46875 1.30612 0.46875 2.13455V13.1346Z" fill="black"/>
</svg>
